HIERARCHY
ROOT Hips
{
	OFFSET 0.000000 0.000000 0.000000 
	CHANNELS 6 Xposition Yposition Zposition Zrotation Yrotation Xrotation
	JOINT LeftUpLeg
	{
		OFFSET 1.363060 -1.794630 0.839290 
		CHANNELS 3 Zrotation Yrotation Xrotation
		JOINT LeftLeg
		{
			OFFSET 2.448110 -6.726130 0.000000 
			CHANNELS 3 Zrotation Yrotation Xrotation
			JOINT LeftFoot
			{
				OFFSET 2.562200 -7.039590 0.000000 
				CHANNELS 3 Zrotation Yrotation Xrotation
				JOINT LeftToeBase
				{
					OFFSET 0.157640 -0.433110 2.322550 
					CHANNELS 3 Zrotation Yrotation Xrotation
					End Site
					{
						OFFSET 0.000000 0.000000 0.000000 
					}
				}
			}
		}
	}
	JOINT RightUpLeg
	{
		OFFSET -1.305520 -1.794630 0.839290 
		CHANNELS 3 Zrotation Yrotation Xrotation
		JOINT RightLeg
		{
			OFFSET -2.542530 -6.985550 0.000000 
			CHANNELS 3 Zrotation Yrotation Xrotation
			JOINT RightFoot
			{
				OFFSET -2.568260 -7.056230 0.000000 
				CHANNELS 3 Zrotation Yrotation Xrotation
				JOINT RightToeBase
				{
					OFFSET -0.164730 -0.452590 2.363150 
					CHANNELS 3 Zrotation Yrotation Xrotation
					End Site
					{
						OFFSET 0.000000 0.000000 0.000000 
					}
				}
			}
		}
	}
	JOINT Spine
	{
		OFFSET 0.028270 2.035590 -0.193380 
		CHANNELS 3 Zrotation Yrotation Xrotation
		JOINT Spine1
		{
			OFFSET 0.056720 2.048850 -0.042750 
			CHANNELS 3 Zrotation Yrotation Xrotation
			JOINT Neck1
			{
				OFFSET -0.054170 1.746240 0.172020 
				CHANNELS 3 Zrotation Yrotation Xrotation
				JOINT Head
				{
					OFFSET 0.104070 1.761360 -0.123970 
					CHANNELS 3 Zrotation Yrotation Xrotation
					End Site
					{
						OFFSET 0.000000 0.000000 0.000000 
					}
				}
			}
			JOINT LeftArm
			{
				OFFSET 3.362410 1.200890 -0.311210 
				CHANNELS 3 Zrotation Yrotation Xrotation
				JOINT LeftForeArm
				{
					OFFSET 4.983000 -0.000000 -0.000000 
					CHANNELS 3 Zrotation Yrotation Xrotation
					JOINT LeftHand
					{
						OFFSET 3.483560 -0.000000 -0.000000 
						CHANNELS 3 Zrotation Yrotation Xrotation
						JOINT LeftHandIndex1
						{
							OFFSET 0.715260 -0.000000 -0.000000 
							CHANNELS 3 Zrotation Yrotation Xrotation
							End Site
							{
								OFFSET 0.000000 0.000000 0.000000 
							}
						}
					}
				}
			}
			JOINT RightArm
			{
				OFFSET -3.136600 1.374050 -0.404650 
				CHANNELS 3 Zrotation Yrotation Xrotation
				JOINT RightForeArm
				{
					OFFSET -5.241900 -0.000000 -0.000000 
					CHANNELS 3 Zrotation Yrotation Xrotation
					JOINT RightHand
					{
						OFFSET -3.444170 -0.000000 -0.000000 
						CHANNELS 3 Zrotation Yrotation Xrotation
						JOINT RightHandIndex1
						{
							OFFSET -0.622530 -0.000000 -0.000000 
							CHANNELS 3 Zrotation Yrotation Xrotation
							End Site
							{
								OFFSET 0.000000 0.000000 0.000000 
							}
						}
					}
				}
			}
		}
	}
}
MOTION
Frames: 16
Frame Time: 0.041667
1.695498 13.592935 -4.318842 -2.048125 -5.233465 18.526822 -7.624045 -8.134571 -79.190158 19.589387 21.900035 88.854457 1.740212 -12.682430 -17.885437 0.073700 -1.751400 -4.819000 23.797048 -14.243247 -81.158652 -25.578493 -17.840188 106.477423 -1.506520 3.339207 -20.182395 -0.314900 3.607100 -9.973800 6.182394 7.846216 23.771998 3.314834 3.937107 -5.145100 -4.252948 -3.482604 17.337565 -3.015300 -2.362400 10.260100 -85.163768 -12.774011 66.469853 97.084672 -62.732240 -64.872676 0.601805 0.220531 3.234779 -7.125000 0.000000 0.000000 80.564221 59.401448 25.750669 -11.682103 26.904595 -1.362570 -0.221606 1.501692 -14.353048 7.125000 0.000000 0.000000 
1.713109 13.492937 -4.309688 -1.981876 -5.191743 18.514529 -7.555182 -8.307570 -79.834759 20.002505 21.912067 90.028173 1.779068 -12.530610 -18.269689 0.118700 -2.221300 -6.117600 23.671153 -14.717405 -81.910131 -25.949366 -17.749891 107.633440 -1.568916 3.824970 -20.314068 -0.332400 3.705100 -10.248400 6.520481 7.727042 23.964963 3.601222 3.884336 -5.009745 -4.074147 -3.396220 17.424864 -2.855100 -2.365700 10.384100 -85.264171 -12.731574 66.250399 98.280364 -62.642490 -65.856932 0.609355 0.207700 3.131986 -7.125000 0.000000 0.000000 80.274382 60.152449 25.373908 -11.498943 26.847750 -1.291037 -0.232005 1.535693 -14.541531 7.125000 0.000000 0.000000 
1.726840 13.392043 -4.301231 -1.866360 -5.148703 18.475912 -7.570972 -8.425479 -80.464832 20.414792 21.910881 91.192192 1.834789 -12.692448 -18.714381 0.107900 -2.117800 -5.831400 23.487607 -15.235507 -82.655344 -26.316152 -17.657582 108.782256 -1.627527 4.258415 -20.464339 -0.358400 3.845900 -10.643600 6.991669 7.557537 24.024387 4.050774 3.812489 -5.061334 -3.826383 -3.222349 17.608706 -2.616600 -2.333700 10.490700 -85.588953 -12.286661 65.856526 99.381774 -62.547380 -66.764445 0.613892 0.203444 3.202431 -7.125000 0.000000 0.000000 80.013484 60.623051 25.604149 -11.426141 26.880863 -1.266883 -0.243722 1.550909 -14.960562 7.125000 0.000000 0.000000 
1.735596 13.292343 -4.294962 -1.829764 -5.155209 18.412740 -7.460849 -8.424919 -81.094259 20.826675 21.906623 92.347090 1.880099 -13.056277 -19.053356 0.073700 -1.751800 -4.820200 23.444042 -15.655593 -83.243991 -26.653538 -17.551444 109.847019 -1.676947 4.538557 -20.673680 -0.357000 3.838800 -10.623500 6.564824 8.074710 24.110760 3.318158 4.016773 -5.051378 -3.931548 -4.054455 17.544509 -2.932100 -2.620200 10.482700 -84.593641 -13.037628 67.091132 100.289537 -62.474813 -67.521947 0.613612 0.211007 3.006630 -7.125000 0.000000 0.000000 78.769577 61.308926 22.101509 -11.179088 26.768966 -1.148260 -0.226578 1.611322 -14.612881 7.125000 0.000000 0.000000 
1.744850 13.195528 -4.287002 -1.791094 -5.162039 18.357469 -7.410301 -8.370531 -81.700192 21.222644 21.889428 93.467941 1.899014 -13.309216 -19.222537 0.068600 -1.689400 -4.648000 23.366401 -16.085037 -83.821450 -26.978115 -17.450868 110.873614 -1.723746 4.947013 -20.746070 -0.353500 3.820100 -10.571200 6.587187 8.269586 24.088202 3.123844 4.109482 -5.167259 -4.393321 -4.298209 16.920053 -3.161100 -2.738900 10.119300 -84.053810 -12.992908 67.594378 101.512327 -62.355814 -68.542790 0.623668 0.213836 2.962740 -7.125000 0.000000 0.000000 78.216099 61.702876 20.385534 -10.958197 26.561052 -1.047729 -0.214499 1.648782 -14.269731 7.125000 0.000000 0.000000 
1.758880 13.101002 -4.271977 -1.624585 -5.285920 18.277754 -7.555740 -8.295532 -82.237591 21.610168 21.863974 94.573545 1.926152 -13.518701 -19.445953 0.054800 -1.511100 -4.156300 23.045228 -16.568777 -84.398681 -27.310331 -17.339812 111.936102 -1.769975 5.477219 -20.718112 -0.372800 3.921800 -10.856900 6.503361 8.456565 24.097564 2.935496 4.184750 -5.244622 -4.582610 -4.581908 16.492834 -3.276900 -2.859200 9.862000 -83.523481 -12.969365 68.093879 102.720512 -62.224688 -69.548476 0.628817 0.225796 2.942893 -7.125000 0.000000 0.000000 77.626947 62.056682 18.828291 -10.828411 26.473554 -0.978263 -0.218252 1.676339 -14.078611 7.125000 0.000000 0.000000 
1.775098 13.006078 -4.255261 -1.532996 -5.412654 18.225317 -7.629896 -8.223161 -82.823218 22.004460 21.831832 95.695270 1.964019 -13.771991 -19.738564 0.031400 -1.144400 -3.146200 22.750637 -16.988981 -84.942062 -27.634527 -17.223627 112.977983 -1.812488 5.897725 -20.757020 -0.395700 4.039000 -11.186300 6.440219 8.666025 24.088615 2.711399 4.261450 -5.334921 -4.270651 -5.005631 16.457790 -3.200000 -3.010200 9.804700 -83.081302 -12.946088 68.614963 103.765385 -62.100192 -70.415990 0.624385 0.236384 3.160188 -7.125000 0.000000 0.000000 76.915681 62.366271 17.401587 -10.758944 26.441015 -0.919317 -0.245196 1.695616 -14.345295 7.125000 0.000000 0.000000 
1.790024 12.910259 -4.241729 -1.548589 -5.499933 18.188755 -7.575712 -8.141436 -83.447491 22.395804 21.795406 96.809824 2.011918 -13.818092 -20.112378 0.035800 -1.222000 -3.359900 22.569353 -17.319464 -85.444083 -27.940861 -17.106994 113.965438 -1.851305 6.231208 -20.838232 -0.428000 4.198600 -11.636200 6.391684 8.808277 24.076861 2.483215 4.306664 -5.396711 -3.799869 -5.392706 16.639619 -3.046200 -3.138500 9.853900 -82.707032 -12.876359 68.961670 104.491241 -62.006465 -71.024385 0.630118 0.227961 3.681025 -7.125000 0.000000 0.000000 76.446109 62.678676 16.158319 -10.687264 26.425190 -0.881738 -0.273755 1.714040 -14.432081 7.125000 0.000000 0.000000 
1.804252 12.817424 -4.229092 -1.544764 -5.635784 18.125345 -7.556775 -8.026353 -84.007535 22.772576 21.754404 97.888460 2.079154 -13.604582 -20.622860 0.068700 -1.691400 -4.653400 22.313205 -17.635097 -85.931008 -28.249092 -16.982735 114.964799 -1.899568 6.724101 -20.881337 -0.424900 4.183500 -11.593600 6.313853 8.928196 24.087847 2.285495 4.350270 -5.432019 -3.788284 -5.604160 16.469700 -3.063900 -3.221000 9.730000 -82.311208 -12.827835 69.224987 105.021410 -61.936641 -71.478380 0.650374 0.210819 4.348392 -7.125000 0.000000 0.000000 76.150074 62.873090 15.214023 -10.715727 26.556545 -0.904050 -0.293168 1.720048 -14.353836 7.125000 0.000000 0.000000 
1.819376 12.724391 -4.215859 -1.516618 -5.737358 18.112575 -7.564379 -7.948253 -84.662383 23.147801 21.707121 98.970378 2.124164 -13.443873 -20.983685 0.092200 -1.958500 -5.391000 21.991463 -18.002993 -86.498797 -28.572318 -16.845347 116.020777 -1.952117 7.434554 -20.810904 -0.373900 3.927600 -10.873100 6.236079 9.053843 24.093471 2.081698 4.404849 -5.439113 -4.042895 -5.767688 16.042934 -3.190500 -3.296700 9.474300 -81.842204 -12.784365 69.573822 105.960678 -61.807653 -72.269681 0.665025 0.208238 4.849343 -7.125000 0.000000 0.000000 75.783000 63.000727 14.225768 -10.789936 26.730153 -0.937289 -0.303949 1.720409 -14.264509 7.125000 0.000000 0.000000 
1.834600 12.629367 -4.203222 -1.461584 -5.790456 18.074486 -7.585694 -7.901757 -85.302834 23.521214 21.650050 100.051854 2.141338 -13.539837 -21.138848 0.077600 -1.797400 -4.946100 21.669976 -18.479252 -87.079077 -28.895321 -16.703819 117.086677 -1.988656 8.106125 -20.651575 -0.356400 3.835200 -10.613500 6.167760 9.144188 24.075957 1.879563 4.439238 -5.480856 -4.148479 -5.939845 15.710068 -3.249100 -3.367300 9.259200 -81.402361 -12.693953 69.918025 106.996669 -61.655579 -73.136960 0.671897 0.214589 5.308497 -7.125000 0.000000 0.000000 75.411738 63.151706 13.248395 -10.808475 26.810667 -0.939113 -0.306203 1.726457 -14.070082 7.125000 0.000000 0.000000 
1.848630 12.532354 -4.190187 -1.366689 -5.860176 17.982402 -7.641544 -7.836628 -85.840467 23.887165 21.583313 101.113912 2.150823 -13.835509 -21.223089 0.046100 -1.385000 -3.808800 21.351213 -18.992240 -87.622952 -29.201855 -16.566462 118.108536 -2.003352 8.516882 -20.497024 -0.385500 3.987400 -11.041300 6.149519 9.284514 24.038153 1.709701 4.497787 -5.583867 -4.343818 -6.148251 15.176660 -3.338300 -3.462000 8.945300 -81.041857 -12.670853 70.366600 107.626148 -61.562111 -73.672493 0.680403 0.213341 5.829488 -7.125000 0.000000 0.000000 74.833641 63.314312 12.253919 -10.788825 26.787458 -0.903805 -0.319978 1.732792 -14.075770 7.125000 0.000000 0.000000 
1.862460 12.433052 -4.177451 -1.331340 -5.896308 17.931630 -7.619355 -7.773973 -86.484748 24.258931 21.510107 102.200682 2.140614 -14.069218 -21.196917 0.027400 -1.068700 -2.937900 21.110410 -19.446321 -88.164673 -29.496322 -16.428664 119.093826 -2.024954 8.844193 -20.460258 -0.424300 4.180500 -11.585000 6.158263 9.439505 23.997146 1.531934 4.562286 -5.669129 -4.522165 -6.360743 14.730236 -3.432400 -3.558500 8.702500 -80.699777 -12.697398 70.769701 108.099572 -61.491509 -74.083047 0.695990 0.198754 6.355075 -7.125000 0.000000 0.000000 74.164285 63.559243 11.085362 -10.705811 26.667760 -0.834510 -0.333486 1.745686 -13.966941 7.125000 0.000000 0.000000 
1.874102 12.336138 -4.166407 -1.340462 -5.907458 17.880042 -7.544911 -7.699094 -87.162101 24.629362 21.432147 103.288688 2.134923 -14.141640 -21.211691 0.020600 -0.926800 -2.547400 20.924238 -19.876773 -88.694379 -29.788753 -16.284700 120.075832 -2.062123 9.215697 -20.528666 -0.459700 4.349300 -12.061600 6.116594 9.546558 23.873963 1.359564 4.591639 -5.715675 -4.463635 -6.550993 14.854311 -3.442600 -3.628000 8.736300 -80.358903 -12.605474 71.010153 108.789753 -61.380505 -74.669387 0.709718 0.189824 6.849779 -7.125000 0.000000 0.000000 73.626438 63.744921 10.208914 -10.691275 26.664722 -0.811644 -0.331145 1.752714 -13.896825 7.125000 0.000000 0.000000 
1.884749 12.241512 -4.153372 -1.301073 -5.953050 17.793844 -7.536555 -7.623145 -87.746519 24.991998 21.349554 104.355489 2.171109 -14.059743 -21.490048 0.034400 -1.196500 -3.289600 20.653805 -20.315843 -89.193087 -30.078383 -16.133991 121.060494 -2.089153 9.717646 -20.438437 -0.440800 4.259900 -11.809100 6.068153 9.607023 23.881416 1.212552 4.600222 -5.740273 -4.204455 -6.783266 15.176494 -3.373500 -3.700700 8.849200 -80.014617 -12.450475 71.258490 109.824250 -61.201630 -75.529747 0.707734 0.202981 7.085628 -7.125000 0.000000 0.000000 73.174676 63.795794 9.745341 -10.810686 26.851114 -0.864944 -0.330855 1.743025 -14.081829 7.125000 0.000000 0.000000 
1.896191 12.147782 -4.140934 -1.226348 -6.010258 17.773544 -7.544265 -7.568561 -88.392562 25.345666 21.263200 105.399559 2.213856 -13.999061 -21.804252 0.072100 -1.732200 -4.766100 20.358421 -20.748748 -89.771164 -30.362963 -15.976639 122.042191 -2.095527 10.437222 -20.066585 -0.337200 3.731800 -10.323400 5.969983 9.611671 23.876682 1.087338 4.587397 -5.768698 -4.052764 -6.914824 15.270272 -3.334300 -3.738700 8.865300 -79.689750 -12.236322 71.363222 111.086158 -60.971023 -76.574399 0.700031 0.218453 7.218574 -7.125000 0.000000 0.000000 72.987478 63.773841 9.508680 -10.982859 27.149293 -0.968209 -0.325105 1.729722 -14.011430 7.125000 0.000000 0.000000 
